<?xml version="1.0" encoding="UTF-8"?>
<!-- Created with Inkscape (http://www.inkscape.org/) -->
<svg width="410.5" height="356.11" version="1.1" viewBox="0 0 108.61 94.22" xmlns="http://www.w3.org/2000/svg">
 <defs>
  <clipPath id="clipPath447">
   <path transform="translate(-533.78 -428.79)" d="m0 982h1512v-982h-1512z"/>
  </clipPath>
  <clipPath id="clipPath449">
   <path transform="translate(-289.72 -393.63)" d="m0 982h1512v-982h-1512z"/>
  </clipPath>
  <clipPath id="clipPath451">
   <path transform="translate(-476.84 -409.78)" d="m0 982h1512v-982h-1512z"/>
  </clipPath>
  <clipPath id="clipPath453">
   <path transform="translate(-482.57 -413.98)" d="m0 982h1512v-982h-1512z"/>
  </clipPath>
  <clipPath id="clipPath455">
   <path transform="translate(-454.46 -399.08)" d="m0 982h1512v-982h-1512z"/>
  </clipPath>
  <clipPath id="clipPath457">
   <path transform="translate(-484.32 -415.65)" d="m0 982h1512v-982h-1512z"/>
  </clipPath>
  <clipPath id="clipPath459">
   <path transform="translate(-453.53 -427.09)" d="m0 982h1512v-982h-1512z"/>
  </clipPath>
  <clipPath id="clipPath461">
   <path transform="translate(-455.37 -416.24)" d="m0 982h1512v-982h-1512z"/>
  </clipPath>
  <clipPath id="clipPath463">
   <path transform="translate(-487.81 -422.92)" d="m0 982h1512v-982h-1512z"/>
  </clipPath>
  <clipPath id="clipPath465">
   <path transform="translate(-291.02 -387.83)" d="m0 982h1512v-982h-1512z"/>
  </clipPath>
  <clipPath id="clipPath467">
   <path transform="translate(-320.85 -399.67)" d="m0 982h1512v-982h-1512z"/>
  </clipPath>
  <clipPath id="clipPath469">
   <path transform="translate(-320.36 -394.44)" d="m0 982h1512v-982h-1512z"/>
  </clipPath>
  <clipPath id="clipPath471">
   <path transform="translate(-399.61 -479.34)" d="m0 982h1512v-982h-1512z"/>
  </clipPath>
  <clipPath id="clipPath473">
   <path transform="translate(-472.64 -433.92)" d="m0 982h1512v-982h-1512z"/>
  </clipPath>
  <clipPath id="clipPath475">
   <path transform="translate(-348.85 -497.54)" d="m0 982h1512v-982h-1512z"/>
  </clipPath>
  <clipPath id="clipPath477">
   <path transform="translate(-415.86 -521.16)" d="m0 982h1512v-982h-1512z"/>
  </clipPath>
  <clipPath id="clipPath479">
   <path transform="translate(-289.49 -392.13)" d="m0 982h1512v-982h-1512z"/>
  </clipPath>
  <clipPath id="clipPath481">
   <path transform="translate(-454.97 -419.15)" d="m0 982h1512v-982h-1512z"/>
  </clipPath>
  <clipPath id="clipPath483">
   <path transform="translate(-451.72 -435.95)" d="m0 982h1512v-982h-1512z"/>
  </clipPath>
  <clipPath id="clipPath485">
   <path transform="translate(-387.85 -415.05)" d="m0 982h1512v-982h-1512z"/>
  </clipPath>
  <clipPath id="clipPath487">
   <path transform="translate(-302.8 -381.7)" d="m0 982h1512v-982h-1512z"/>
  </clipPath>
  <clipPath id="clipPath489">
   <path transform="translate(-451.84 -435.05)" d="m0 982h1512v-982h-1512z"/>
  </clipPath>
  <clipPath id="clipPath491">
   <path transform="translate(-454.46 -399.08)" d="m0 982h1512v-982h-1512z"/>
  </clipPath>
  <clipPath id="clipPath493">
   <path transform="translate(-453.19 -428.95)" d="m0 982h1512v-982h-1512z"/>
  </clipPath>
  <clipPath id="clipPath495">
   <path transform="translate(-487.82 -422.33)" d="m0 982h1512v-982h-1512z"/>
  </clipPath>
  <clipPath id="clipPath497">
   <path transform="translate(-451.72 -435.95)" d="m0 982h1512v-982h-1512z"/>
  </clipPath>
  <clipPath id="clipPath499">
   <path transform="translate(-291.02 -387.83)" d="m0 982h1512v-982h-1512z"/>
  </clipPath>
  <clipPath id="clipPath501">
   <path transform="translate(-319.94 -412.95)" d="m0 982h1512v-982h-1512z"/>
  </clipPath>
  <clipPath id="clipPath503">
   <path transform="translate(-295.95 -401.2)" d="m0 982h1512v-982h-1512z"/>
  </clipPath>
  <clipPath id="clipPath505">
   <path transform="translate(-420.43 -507.97)" d="m0 982h1512v-982h-1512z"/>
  </clipPath>
  <clipPath id="clipPath507">
   <path transform="translate(-358.52 -523.3)" d="m0 982h1512v-982h-1512z"/>
  </clipPath>
  <clipPath id="clipPath509">
   <path transform="translate(-389.47 -487.38)" d="m0 982h1512v-982h-1512z"/>
  </clipPath>
  <clipPath id="clipPath511">
   <path transform="translate(-387.7 -470.54)" d="m0 982h1512v-982h-1512z"/>
  </clipPath>
 </defs>
 <g>
  <path transform="matrix(.35278 0 0 -.35278 107.92 61.839)" d="m0 0c-5.546 14.08-20.335 23.411-44.092 27.871 0.59 0.869 1.155 1.834 1.657 2.906 1.914 4.086 2.803 6.29 3.91 10.389 0.886-0.594 1.534-1.012 2.165-1.371 4.216-2.396 6.561-4.569 8.445-6.316 2.526-2.341 6.343-5.879 12.516-5.879 5.16 0 9.936 2.696 12.778 7.213 3.178 5.051 3.139 11.327-0.116 18.655-1.812 4.078-4.429 7.895-7.502 10.979 2.15 1.448 3.926 3.463 5.118 5.915 2.543 5.231 2.066 11.324-1.309 16.717-5.728 9.155-19.449 15.8-32.625 15.801-0.696 0-1.39-0.018-2.083-0.052-1.356 4.485-3.443 7.828-4.698 9.839-0.022 0.035-0.044 0.071-0.066 0.105-0.969 3.366-3.105 9.819-5.846 13.908 0.499 2.08 0.806 4.656 0.456 7.633-0.682 5.799-1.539 8.261-2.676 11.106-0.142 0.355-0.295 0.735-0.461 1.192-0.022 0.127-0.06 0.384-0.089 0.579-0.225 1.532-0.601 4.096-2.047 7.196-0.815 1.748-6.494 11.585-13.055 15.576-0.017 0.015-0.033 0.03-0.049 0.045-1.274 1.154-3.646 3.302-7.325 4.397-1.978 0.588-3.949 0.887-5.86 0.887-2.303 0-4.253-0.426-5.794-0.947-0.097 2e-3 -0.193 2e-3 -0.289 2e-3 -6.147 1e-3 -9.97-2.646-13.042-4.772-0.303-0.209-0.629-0.435-0.985-0.678-2.677-1.828-4.447-4.036-5.619-5.497-0.092-0.115-0.198-0.247-0.299-0.372-0.104-0.066-0.207-0.131-0.296-0.186-1.544-0.969-3.465-2.174-5.196-3.973-1.76-1.83-2.922-3.633-3.715-5.105-0.062 3e-3 -0.125 5e-3 -0.188 7e-3 -0.337 0.01-0.665 0.014-0.981 0.014-2.56 0-4.509-0.304-5.788-0.53-1.265 0.31-2.822 0.637-5.169 0.763-0.426 0.023-0.852 0.035-1.263 0.035-1.484 0-2.701-0.146-3.733-0.34-0.302 0.049-0.615 0.102-0.858 0.143-1.173 0.197-2.386 0.401-3.494 0.515l-0.442 0.046c-1.941 0.207-4.176 0.428-6.147 0.428-0.86 0-1.639-0.041-2.383-0.125-1.768-0.198-3.307-0.533-4.543-0.802-0.434-0.095-1-0.218-1.33-0.276-0.455 0.026-1.141 0.088-1.759 0.145-1.465 0.135-3.287 0.302-5.215 0.302-1.833 0-3.494-0.148-5.076-0.452-2.774-0.534-4.69-1.155-6.058-1.647-0.275 0.28-0.536 0.532-0.778 0.759-0.49 1.002-1.075 2.102-1.931 3.457-1.298 2.056-2.974 3.738-5.003 5.026-1.161 1.271-2.832 2.812-5.17 4.006-2.977 1.521-6.267 2.073-10.944 2.512l-0.165 0.015c-0.651 0.061-1.301 0.093-1.932 0.093-5.243 0-8.722-2.144-10.394-3.174-0.19-0.117-0.336-0.206-0.46-0.28-0.081-0.03-0.163-0.061-0.247-0.092-1.928-0.728-5.154-1.945-8.001-4.763l-1.863-1.844-0.897-2.007c-0.475-0.477-1.112-1.12-1.88-1.979-2.859-3.194-3.771-4.991-5.404-8.435-1.391-2.934-1.725-5.587-1.839-7.252-0.672-1.889-0.964-3.563-1.168-4.806-0.982-1.491-2.216-3.476-2.915-6.109-0.41-1.541-0.64-2.957-0.74-4.258-2.364-2.32-4.769-5.12-7.198-9.179-0.185-0.182-0.523-0.487-0.783-0.722-1.649-1.491-4.4-3.978-6.634-8.088-0.189-0.32-0.731-1.188-1.096-1.771-1.755-2.807-2.588-4.178-3.202-5.521-1.314-2.877-1.781-5.304-2.09-6.91-0.111-0.576-0.183-0.94-0.267-1.259-0.131-0.251-0.392-0.704-0.591-1.049-0.122-0.21-0.249-0.431-0.381-0.663-1.784 0.235-3.564 0.353-5.333 0.353-10.899 1e-3 -20.967-4.489-26.931-12.009-4.036-5.088-5.546-10.935-4.253-16.463 0.332-1.419 0.855-2.749 1.536-3.962-0.558-0.513-1.144-1.063-1.77-1.655-0.481-0.454-1.203-1.136-1.467-1.366-10.497-8.588-14.152-21.109-8.689-29.792 2.668-4.241 7.265-6.773 12.297-6.773 6.742 0 11.073 4.003 17.63 10.061 2.281 2.108 6.507 6.014 8.181 6.961 4.43 1.987 6.628 2.541 9.791 3.304 0.986-2.307 2.152-4.899 4.243-8.081 0.032-0.08 0.066-0.163 0.1-0.248 0.869-2.141 2.323-5.724 5.342-8.744 1.436-1.435 2.882-3.149 4.422-5.24 3.459-4.698 6.904-6.713 9.229-8.037-12.318-4.463-22.681-9.359-30.956-14.639-16.168-10.315-24.98-22.45-26.19-36.067-0.754-8.478 2.197-16.621 8.535-23.547 14.092-15.401 43.634-23.542 85.432-23.542 16.205 0 34.17 1.258 53.398 3.737 36.351 4.686 67.301 12.671 91.992 23.731 22.67 10.156 38.774 22.498 46.571 35.694 5.67 9.597 6.87 19.764 3.379 28.628" clip-path="url(#clipPath447)" fill="#fff"/>
  <g>
   <path transform="matrix(.35278 0 0 -.35278 21.821 74.24)" d="m0 0c0.413 1.503 1.363 3.018 2.784 4.534 0.237 0.253 0.486 0.506 0.749 0.758 0.525 0.506 1.101 1.011 1.726 1.516 0.313 0.253 0.637 0.505 0.974 0.757 0.672 0.504 1.393 1.008 2.158 1.51 1.147 0.754 2.396 1.505 3.738 2.252 0.894 0.498 1.83 0.994 2.804 1.488 0.743 0.377 1.515 0.752 2.301 1.126 0.762 0.362 1.536 0.723 2.337 1.082 0.543 0.244 1.094 0.486 1.654 0.728 1.12 0.484 2.273 0.965 3.458 1.442 1.778 0.716 3.626 1.425 5.537 2.124 1.91 0.7 3.883 1.39 5.91 2.07-0.099-0.544-0.202-1.083-0.31-1.606-0.109-0.523-0.224-1.031-0.349-1.514-1.067-4.099-3.3-8.015-4.344-12.228-0.149-0.602-0.274-1.209-0.368-1.825-0.08-0.53-0.126-1.12-0.14-1.758-0.012-0.519-4e-3 -1.07 0.022-1.648 0.181-4.048 1.222-9.438 2.214-14.438 0.087-0.44 0.174-0.877 0.26-1.309-1.791 0.125-3.534 0.274-5.221 0.448-1.687 0.173-3.319 0.371-4.89 0.593-2.619 0.371-5.068 0.81-7.321 1.32-0.9 0.204-1.77 0.42-2.606 0.647-1.254 0.34-2.433 0.706-3.531 1.098-1.83 0.654-3.435 1.381-4.788 2.183-0.541 0.321-1.042 0.654-1.501 0.999-0.773 0.582-1.427 1.198-1.952 1.85-0.875 1.087-1.393 2.271-1.514 3.557-0.023 0.248-0.031 0.496-0.023 0.745 0.016 0.498 0.094 0.998 0.232 1.499m35.167 83.748c3.148 11.963 29.537 6.752 40.925 14.482 11.963 8.118 15.741 21.407 24.556 21.407 10.703 0 14.042-14.818 23.926-21.407 15.111-10.074 38.054-5.667 38.054-17 0-14.482-22.314-15.741-36.166-27.704-9.434-8.148-13.103-32.111-28.333-32.111-15.111 0-21.13 32.741-35.611 39.667-14.482 6.926-30.571 10.428-27.351 22.666m16.17 42.811c5.447 7.196 10.268 8.669 13.742 8.669 1.497 0 2.744-0.273 3.683-0.48 1.559-0.343 5.922-3.105 7.853-6.485 1.93-3.379 1.333-8.611-1.711-13.973-1.753-3.089-2.46-4.905-4.666-6.679-3.19-2.565-6.638-3.793-9.722-3.793-0.471 0-0.933 0.028-1.384 0.085-6.967 1.416-12.631 5.538-12.391 12.065 0.11 2.966 2.16 7.373 4.596 10.591m68.026-1.885c0.595 2.227 3.343 5.993 4.608 7.626 3.536 4.567 7.674 6.664 11.642 6.664 1.432 0 2.842-0.273 4.194-0.802 3.124-1.101 6.024-4.929 6.869-7.803 1.09-3.704 0.905-7.304-1.108-11.558-1.132-2.392-3.233-5.27-5.073-6.605-2.89-2.099-6.29-2.993-9.056-2.993-1.036 0-1.983 0.126-2.782 0.36-3.462 1.016-9.253 3.263-9.855 9.72-0.143 1.543 9e-3 3.326 0.561 5.391m45.986-82.428c0.035-1e-3 0.07-2e-3 0.105-4e-3 1.063-0.034 2.107-0.078 3.131-0.134 0.6-0.033 1.194-0.069 1.781-0.109 1.006-0.069 1.993-0.149 2.957-0.24 1.502-0.143 2.95-0.314 4.342-0.514 1.003-0.145 1.973-0.306 2.916-0.481 0.801-0.149 1.582-0.308 2.337-0.48 1.232-0.281 2.402-0.594 3.506-0.938 0.735-0.23 1.441-0.474 2.117-0.733 0.675-0.259 1.32-0.533 1.933-0.822 0.443-0.209 0.863-0.429 1.273-0.654 0.265-0.146 0.522-0.295 0.772-0.447 2.306-1.404 3.998-3.096 4.97-5.114 0.361-0.75 0.559-1.515 0.604-2.292 0.011-0.194 0.013-0.389 5e-3 -0.586-0.024-0.587-0.132-1.182-0.322-1.782-0.169-0.533-0.401-1.071-0.695-1.613-0.441-0.812-1.021-1.633-1.728-2.46-0.236-0.276-0.487-0.552-0.751-0.829-0.528-0.554-1.113-1.11-1.75-1.668-0.638-0.557-1.328-1.117-2.069-1.677-0.371-0.28-0.754-0.56-1.149-0.84-0.79-0.561-1.63-1.122-2.516-1.683s-1.818-1.121-2.793-1.681c-0.488-0.279-0.987-0.559-1.496-0.838-1.018-0.559-2.079-1.116-3.179-1.67-1.1-0.555-2.239-1.108-3.415-1.658-1.764-0.825-3.61-1.643-5.529-2.453-1.92-0.809-3.912-1.61-5.969-2.399-1e-3 0.586-5e-3 1.153-9e-3 1.713-0.022 2.798-0.051 5.4 0.277 9.138 0.066 0.748 0.146 1.541 0.243 2.39 0.097 0.85 0.211 1.755 0.346 2.728 0.053 0.385 0.071 0.783 0.062 1.191-0.022 0.935-0.187 1.918-0.405 2.914-0.364 1.66-0.874 3.355-1.109 4.918-0.055 0.363-0.101 0.722-0.121 1.068-0.037 0.673-0.109 1.321-0.204 1.953-0.096 0.632-0.215 1.248-0.346 1.856-0.264 1.216-0.579 2.399-0.861 3.613-0.188 0.809-0.36 1.632-0.493 2.488-0.046 0.295-0.082 0.597-0.118 0.899 1.136-0.012 2.252-0.036 3.35-0.07m-116.63-84.882c14.966 0 32.134 1.111 51.608 3.621 98.286 12.673 138.78 48.55 130.71 69.038-5.03 12.771-25.214 20.447-57.941 21.829 1.549 1.725 3.081 3.569 4.108 4.562 2.654 2.566 4.24 6.067 6.183 8.965 1.601 2.388 4.383 3.971 5.563 6.49 1.7 3.63 2.279 5.064 3.245 8.749 0.908 3.462 3.099 5.575 3.502 8.867 0.169 1.372 0.347 3.068 0.476 4.929 2.138-0.655 4.157-1.363 6.045-2.113 2.302-0.915 4.712-0.45 6.666-1.443 1.105-0.561 4.737-3.169 5.737-3.737 9.448-5.37 12.356-10.368 14.043-10.368 0.346 0 0.64 0.21 0.928 0.669 0.912 1.449-1.465 8.81-6.823 13.349-3.059 2.593-5.593 4.377-10.234 6.78-2.427 1.257-4.687 1.41-7.475 2.434-2.193 0.805-6.138 1.695-8.792 2.316-0.151 2.679-0.528 5.321-1.279 7.602-0.563 1.627-1.081 3.228-1.55 4.734 1.34 0.549 2.677 1.009 3.997 1.352 2.958 0.768 5.681 1.081 8.168 1.081 10.905 0 17.335-6.012 19.82-6.012 0.423 0 0.73 0.173 0.928 0.579 1.771 3.643-8.53 12.396-21.344 12.396-2.822 0-5.765-0.424-8.729-1.421-1.594-0.536-3.134-1.198-4.625-1.947-0.346 1.212-0.607 2.131-0.768 2.63-0.939 2.898-0.415 5.573-0.821 8.258-0.883 5.834-4.672 9.599-5.056 11.417-0.385 1.826-2.688 8.784-4.404 11.186-1.742 2.439-2.99 2.158-3.476 5.099-0.449 2.709 2.202 4.636 1.738 8.577-0.664 5.646-1.345 6.232-2.434 9.271-0.974 2.719-0.534 4.186-1.622 6.52-1.211 2.595-5.8 8.607-7.694 9.561-1.649 0.83-2.816 2.591-4.041 2.955-0.736 0.219-1.347 0.306-1.867 0.306-1.937 0-2.603-1.199-3.687-1.199-0.087 0-0.177 8e-3 -0.27 0.024-0.847 0.151-1.53 0.23-2.126 0.23-2.026 0-3.055-0.911-6.131-3.011-1.676-1.144-2.921-3.411-4.521-4.868-1.053-0.959-3.699-2.269-4.693-3.303-2.049-2.13-1.985-3.952-3.651-6.085-1.987-2.544-2.558-3.885-3.721-5.774-1.658 0.104-4.079 2.384-7.034 2.471-0.197 5e-3 -0.386 8e-3 -0.57 8e-3 -2.794 0-4.185-0.626-5.725-0.626-0.107 0-0.216 3e-3 -0.326 0.01-2.89 0.173-2.928 0.722-5.659 0.869-0.183 0.01-0.353 0.014-0.51 0.014-1.591 0-1.927-0.462-3.335-0.462-0.233 0-0.496 0.013-0.798 0.042-1.388 0.136-4.026 0.673-5.382 0.812-1.055 0.108-3.552 0.4-5.159 0.4-0.313 0-0.592-0.011-0.82-0.036-2.499-0.281-4.955-1.177-7.228-1.177-0.04 0-0.08 1e-3 -0.121 1e-3 -2.064 0.03-4.675 0.457-7.061 0.457-0.851 0-1.673-0.055-2.432-0.2-4.783-0.92-5.146-2.022-9.282-2.459-2.816-0.297-4.99-0.654-7.484-1.153-0.231 0.578 0.295 2.76-1.208 5.036-0.922 1.395-2.68 2.289-3.367 3.763-0.648 1.391-1.036 2.276-1.907 3.654-0.695 1.101-1.655 0.917-2.144 1.449-0.748 0.813-1.539 2.07-2.558 2.59-1.219 0.623-4.605 0.921-6.059 1.058-0.22 0.02-0.424 0.03-0.616 0.03-1.814 0-2.501-0.894-4.629-2.006-1.225-0.641-3.52-1.16-4.623-2.252-1.217-2.723-2.086-3.013-4.057-5.215-1.612-1.802-1.831-2.24-3.187-5.099-0.913-1.925-0.206-3.587-1.043-5.332-0.799-1.666-0.744-3.589-1.341-5.65-0.401-1.38-2.32-3.512-2.657-4.78-0.985-3.709 0.567-4.33 0.375-6.299-4.094-3.639-6.847-5.689-9.937-10.912-2.03-3.433-4.97-4.308-7.054-8.184-0.556-1.034-3.327-5.259-3.833-6.367-1.044-2.285-0.949-3.953-1.746-6.6-1.183-3.931-4.404-6.024-5.447-14.314-0.014-0.139-0.02-0.277-0.03-0.416-1.567 0.769-3.22 1.46-4.962 2.046-3.29 1.106-6.382 1.573-9.213 1.573-11.3 1e-3 -18.451-7.434-17.551-11.283 0.101-0.432 0.289-0.614 0.576-0.614 1.575 0 6.159 5.476 16.038 5.476 2.641 0 5.659-0.391 9.102-1.383 2.228-0.642 4.432-1.507 6.568-2.509 0.446-2.179 1.033-4.301 1.416-6.429-0.8 0.042-1.615 0.065-2.445 0.065-3.477 0-7.219-0.391-11.204-1.338-3.484-0.827-8.411-2.186-11.474-3.441-4.57-1.873-5.402-2.985-8.839-5.302-1.568-1.057-4.879-4.451-6.176-5.508-5.864-4.781-6.688-10.01-5.734-11.526 0.098-0.155 0.249-0.228 0.447-0.228 2.647 0 13.768 12.953 19.947 15.735 7.475 3.366 10.542 3.662 15.95 5.091 3.486 0.92 6.884 1.376 10.114 1.512 0.254-3.144 0.386-5.656 1.816-8.988 1.184-2.757 2.016-4.949 4.115-8.007 0.853-1.244 1.622-4.568 3.245-6.19 2.137-2.138 4.033-4.446 5.795-6.838 2.752-3.738 4.88-3.737 8.254-6.334 3.625-2.79 3.853-5.476 10.38-7.588 2.005-2.046 4.98-2.347 8.808-2.917-0.535-1.214-1.064-2.483-1.568-3.849-0.203-0.549-0.38-1.145-0.547-1.762-21.397-5.774-38.559-12.568-50.612-20.217l-16.235-15.069c-2.134-3.404-3.403-6.922-3.725-10.55-1.429-16.061 23.608-31.848 80.022-31.848" clip-path="url(#clipPath449)"/>
   <path transform="matrix(.35278 0 0 -.35278 87.832 68.544)" d="m0 0c-0.886-0.561-1.818-1.121-2.793-1.681 0.975 0.56 1.907 1.12 2.793 1.681" clip-path="url(#clipPath451)"/>
   <path transform="matrix(.35278 0 0 -.35278 89.855 67.062)" d="m0 0c-0.637-0.558-1.328-1.117-2.069-1.677 0.741 0.56 1.432 1.119 2.069 1.677" clip-path="url(#clipPath453)"/>
   <path transform="matrix(.35278 0 0 -.35278 79.937 72.319)" d="m0 0c-1e-3 0.586-5e-3 1.153-9e-3 1.713 4e-3 -0.56 8e-3 -1.127 9e-3 -1.713" clip-path="url(#clipPath455)"/>
   <path transform="matrix(.35278 0 0 -.35278 90.472 66.474)" d="m0 0c-0.529-0.554-1.113-1.11-1.75-1.667 0.637 0.557 1.221 1.113 1.75 1.667" clip-path="url(#clipPath457)"/>
   <path transform="matrix(.35278 0 0 -.35278 79.612 62.436)" d="m0 0c0.095-0.632 0.167-1.28 0.205-1.953 0.019-0.346 0.065-0.705 0.12-1.068-0.055 0.363-0.101 0.722-0.12 1.068-0.038 0.673-0.11 1.321-0.205 1.953" clip-path="url(#clipPath459)"/>
   <path transform="matrix(.35278 0 0 -.35278 80.261 66.265)" d="m0 0c9e-3 -0.407-9e-3 -0.806-0.062-1.191-0.134-0.973-0.249-1.878-0.346-2.727 0.097 0.849 0.212 1.754 0.346 2.726 0.053 0.386 0.071 0.784 0.062 1.192" clip-path="url(#clipPath461)"/>
   <path transform="matrix(.35278 0 0 -.35278 91.704 63.91)" d="m0 0c0.011-0.194 0.013-0.389 5e-3 -0.585 8e-3 0.196 6e-3 0.391-5e-3 0.585" clip-path="url(#clipPath463)"/>
   <path transform="matrix(.35278 0 0 -.35278 22.282 76.287)" d="m0 0c-0.875 1.087-1.393 2.271-1.514 3.557-0.023 0.247-0.031 0.496-0.023 0.745-8e-3 -0.249 0-0.498 0.023-0.746 0.121-1.285 0.639-2.47 1.514-3.556" clip-path="url(#clipPath465)"/>
   <path transform="matrix(.35278 0 0 -.35278 32.802 72.11)" d="m0 0c1.044 4.213 3.277 8.128 4.343 12.228 0.126 0.483 0.241 0.991 0.35 1.514-0.109-0.523-0.224-1.031-0.35-1.514-1.066-4.1-3.299-8.015-4.343-12.228" clip-path="url(#clipPath467)"/>
   <path transform="matrix(.35278 0 0 -.35278 32.63 73.955)" d="m0 0c0.181-4.048 1.222-9.438 2.214-14.438-0.992 5-2.033 10.39-2.214 14.438" clip-path="url(#clipPath469)"/>
  </g>
  <g fill="#fff">
   <path transform="matrix(.35278 0 0 -.35278 60.588 44.005)" d="m0 0c0.913-1.979-9.254-8.689-11.914-8.8-2.661-0.111-10.587 5.786-10.111 7.882 0.476 2.095 21.112 2.897 22.025 0.918m-9.702 18.645c3.64 0 7.89-0.944 8.269-3.208 0.38-2.264-2.962-7.399-8.71-7.399-3.763-0.018-7.666 3.323-7.666 6.493s3.104 4.114 8.107 4.114" clip-path="url(#clipPath471)"/>
   <path transform="matrix(.35278 0 0 -.35278 86.35 60.029)" d="m0 0c1.232-0.281 2.402-0.593 3.506-0.938-1.104 0.345-2.274 0.657-3.506 0.938" clip-path="url(#clipPath473)"/>
   <path transform="matrix(.35278 0 0 -.35278 42.681 37.585)" d="m0 0c0.452-0.057 0.913-0.085 1.384-0.085 3.084 0 6.533 1.228 9.722 3.793 2.206 1.774 2.913 3.59 4.667 6.679 3.044 5.362 3.64 10.594 1.71 13.973-1.93 3.38-6.294 6.141-7.853 6.485-0.939 0.207-2.186 0.48-3.683 0.48-3.474 0-8.295-1.473-13.742-8.669-2.436-3.218-4.486-7.625-4.595-10.592-0.241-6.526 5.423-10.648 12.39-12.064" clip-path="url(#clipPath475)"/>
   <path transform="matrix(.35278 0 0 -.35278 66.321 29.25)" d="m0 0c4.577 5.996 10.213 5.169 12.043 4.769 1.832-0.4 6.259-3.638 2.601-11.565-2.745-4.797-6.865-6.796-10.068-6.396-5.95 1.199-9.153 7.195-4.576 13.192m2.516-17.969c0.799-0.234 1.746-0.36 2.782-0.36 2.767 0 6.166 0.895 9.056 2.993 1.841 1.336 3.941 4.213 5.073 6.606 2.013 4.253 2.198 7.853 1.109 11.557-0.846 2.875-3.746 6.703-6.87 7.803-1.352 0.529-2.761 0.802-4.194 0.802-3.967 0-8.106-2.097-11.642-6.663-1.265-1.634-4.013-5.399-4.608-7.627-0.551-2.065-0.704-3.848-0.56-5.391 0.601-6.457 6.392-8.703 9.854-9.72" clip-path="url(#clipPath477)"/>
   <path transform="matrix(.35278 0 0 -.35278 21.739 74.769)" d="M 0,0 C 0.016,0.498 0.094,0.998 0.232,1.499 0.094,0.998 0.016,0.498 0,0" clip-path="url(#clipPath479)"/>
   <path transform="matrix(.35278 0 0 -.35278 80.118 65.237)" d="M 0,0 C -0.364,1.66 -0.874,3.355 -1.109,4.918 -0.874,3.355 -0.364,1.66 0,0" clip-path="url(#clipPath481)"/>
   <path transform="matrix(.35278 0 0 -.35278 78.971 59.312)" d="m0 0c0.037-0.302 0.073-0.605 0.118-0.899-0.045 0.294-0.081 0.597-0.118 0.899z" clip-path="url(#clipPath483)"/>
   <path transform="matrix(.35278 0 0 -.35278 56.439 66.685)" d="m0 0c15.229 0 18.899 23.962 28.333 32.111 13.852 11.963 36.166 13.222 36.166 27.703 0 11.334-22.944 6.926-38.055 17-9.884 6.59-13.222 21.408-23.926 21.408-8.814 0-12.592-13.289-24.555-21.408-11.389-7.729-37.777-2.518-40.926-14.481-3.219-12.239 12.87-15.741 27.351-22.666 14.482-6.926 20.501-39.667 35.612-39.667" clip-path="url(#clipPath485)"/>
   <path transform="matrix(.35278 0 0 -.35278 26.434 78.449)" d="M 0,0 C -1.254,0.34 -2.433,0.706 -3.531,1.099 -2.433,0.706 -1.254,0.34 0,0" clip-path="url(#clipPath487)"/>
   <path transform="matrix(.35278 0 0 -.35278 79.012 59.629)" d="m0 0c0.133-0.856 0.306-1.679 0.493-2.488 0.282-1.214 0.597-2.397 0.861-3.613 0.132-0.608 0.25-1.224 0.346-1.856 0.095-0.632 0.167-1.28 0.205-1.953 0.019-0.346 0.065-0.705 0.12-1.068 0.235-1.563 0.745-3.258 1.109-4.918 0.218-0.996 0.383-1.979 0.405-2.914 9e-3 -0.408-9e-3 -0.806-0.062-1.192-0.134-0.972-0.249-1.877-0.346-2.727-0.097-0.849-0.177-1.642-0.242-2.39-0.328-3.738-0.3-6.34-0.278-9.138 4e-3 -0.56 8e-3 -1.127 9e-3 -1.713 2.057 0.789 4.049 1.59 5.969 2.399 1.919 0.81 3.765 1.628 5.529 2.453 1.176 0.55 2.315 1.103 3.415 1.658 1.1 0.554 2.161 1.111 3.179 1.67 0.509 0.279 1.008 0.559 1.496 0.838 0.975 0.56 1.907 1.12 2.793 1.681s1.726 1.122 2.516 1.683c0.396 0.28 0.779 0.56 1.149 0.84 0.741 0.561 1.432 1.12 2.069 1.677 0.637 0.558 1.222 1.114 1.75 1.668 0.264 0.277 0.515 0.553 0.751 0.829 0.708 0.827 1.287 1.648 1.728 2.46 0.294 0.542 0.527 1.08 0.695 1.613 0.19 0.601 0.298 1.195 0.322 1.782 8e-3 0.197 6e-3 0.392-5e-3 0.586-0.045 0.777-0.243 1.542-0.604 2.292-0.972 2.018-2.664 3.71-4.97 5.114-0.25 0.152-0.507 0.301-0.772 0.447-0.409 0.225-0.83 0.445-1.273 0.654-0.613 0.289-1.258 0.563-1.933 0.822-0.676 0.259-1.382 0.503-2.117 0.733-1.104 0.344-2.274 0.656-3.506 0.938-0.755 0.172-1.536 0.331-2.337 0.48-0.942 0.175-1.913 0.336-2.916 0.481-1.391 0.2-2.84 0.371-4.342 0.514-0.963 0.091-1.95 0.171-2.957 0.24-0.587 0.04-1.18 0.076-1.781 0.109-1.024 0.056-2.068 0.1-3.13 0.134-0.036 2e-3 -0.071 3e-3 -0.106 4e-3 -1.097 0.034-2.214 0.058-3.35 0.07 0.036-0.302 0.072-0.604 0.118-0.899" clip-path="url(#clipPath489)"/>
   <path transform="matrix(.35278 0 0 -.35278 79.937 72.319)" d="M 0,0 C 2.056,0.789 4.049,1.59 5.968,2.399 4.049,1.59 2.056,0.789 0,0" clip-path="url(#clipPath491)"/>
   <path transform="matrix(.35278 0 0 -.35278 79.49 61.782)" d="m0 0c-0.264 1.216-0.579 2.399-0.86 3.613 0.281-1.214 0.596-2.397 0.86-3.613" clip-path="url(#clipPath493)"/>
   <path transform="matrix(.35278 0 0 -.35278 91.706 64.116)" d="m0 0c-0.023-0.588-0.132-1.182-0.322-1.782 0.19 0.6 0.298 1.194 0.322 1.782" clip-path="url(#clipPath495)"/>
   <path transform="matrix(.35278 0 0 -.35278 78.971 59.312)" d="m0 0c1.136-0.012 2.253-0.036 3.35-0.071-1.097 0.035-2.214 0.059-3.35 0.071" clip-path="url(#clipPath497)"/>
   <path transform="matrix(.35278 0 0 -.35278 22.282 76.287)" d="m0 0c0.525-0.652 1.179-1.269 1.953-1.851 0.458-0.345 0.959-0.678 1.5-0.998 1.353-0.802 2.958-1.529 4.788-2.183 1.098-0.393 2.277-0.759 3.531-1.099 0.836-0.227 1.706-0.442 2.607-0.646 2.252-0.51 4.701-0.95 7.32-1.32 1.571-0.223 3.203-0.42 4.89-0.594 1.688-0.173 3.43-0.322 5.221-0.447-0.086 0.432-0.173 0.868-0.26 1.308-0.992 5-2.033 10.39-2.214 14.439-0.026 0.578-0.034 1.129-0.022 1.648 0.014 0.638 0.06 1.227 0.141 1.758 0.093 0.615 0.218 1.223 0.367 1.825 1.044 4.213 3.277 8.128 4.344 12.228 0.125 0.483 0.24 0.99 0.349 1.514 0.109 0.522 0.211 1.061 0.311 1.606-2.028-0.68-4.001-1.371-5.911-2.07-1.911-0.699-3.759-1.408-5.537-2.124-1.185-0.478-2.338-0.958-3.458-1.442-0.56-0.242-1.111-0.485-1.654-0.728-0.8-0.359-1.575-0.721-2.337-1.083-0.786-0.374-1.558-0.749-2.301-1.125-0.974-0.494-1.91-0.991-2.804-1.489-1.342-0.747-2.59-1.498-3.738-2.251-0.765-0.503-1.485-1.006-2.158-1.511-0.337-0.251-0.661-0.504-0.974-0.756-0.625-0.505-1.201-1.011-1.726-1.516-0.262-0.253-0.512-0.505-0.749-0.758-1.421-1.516-2.371-3.032-2.784-4.534-0.138-0.501-0.216-1.001-0.232-1.499-8e-3 -0.249 0-0.498 0.023-0.745 0.121-1.286 0.639-2.47 1.514-3.557" clip-path="url(#clipPath499)"/>
   <path transform="matrix(.35278 0 0 -.35278 32.482 67.425)" d="m0 0c1.911 0.699 3.884 1.39 5.911 2.07-2.027-0.68-4-1.371-5.911-2.07" clip-path="url(#clipPath501)"/>
   <path transform="matrix(.35278 0 0 -.35278 24.02 71.572)" d="M 0,0 C 0.673,0.504 1.393,1.008 2.158,1.51 1.393,1.008 0.673,0.504 0,0" clip-path="url(#clipPath503)"/>
  </g>
  <g>
   <path transform="matrix(.35278 0 0 -.35278 67.935 33.904)" d="m0 0c3.204-0.4 7.323 1.599 10.069 6.396 3.657 7.927-0.77 11.165-2.601 11.564-1.83 0.4-7.467 1.228-12.044-4.768-4.576-5.997-1.373-11.993 4.576-13.192" clip-path="url(#clipPath505)"/>
   <path transform="matrix(.35278 0 0 -.35278 46.092 28.495)" d="m0 0c-1.906 0.417-6.673 1.666-11.44-4.58-1.422-1.864-2.11-3.724-2.229-5.455-0.279-4.07 2.647-7.409 6.995-8.286 0.129-0.016 0.261-0.021 0.393-0.03 3.276-0.214 7.345 1.889 10.094 6.692 3.724 6.504-1.906 11.243-3.813 11.659" clip-path="url(#clipPath507)"/>
   <path transform="matrix(.35278 0 0 -.35278 57.01 41.17)" d="m0 0c5.748 0 9.09 5.135 8.71 7.399-0.379 2.265-4.629 3.208-8.268 3.208-5.004 0-8.107-0.943-8.107-4.113 0-3.171 3.902-6.512 7.665-6.494" clip-path="url(#clipPath509)"/>
   <path transform="matrix(.35278 0 0 -.35278 56.385 47.11)" d="m0 0c2.661 0.111 12.827 6.822 11.914 8.8-0.913 1.979-21.549 1.178-22.025-0.918s7.45-7.993 10.111-7.882" clip-path="url(#clipPath511)"/>
  </g>
 </g>
</svg>
